<svg width="60" height="39" viewBox="0 0 60 39" version="1.1" xmlns="http://www.w3.org/2000/svg" xmlns:xlink="http://www.w3.org/1999/xlink">
<title>noun_33169_cc</title>
<desc>Created using Figma</desc>
<g id="Canvas" transform="translate(9163 3078)">
<g id="noun_33169_cc">
<g id="Vector">
<use xlink:href="#path0_fill" transform="translate(-9163 -3078)" fill="#EE2324"/>
</g>
</g>
</g>
<defs>
<path id="path0_fill" d="M 38.2289 37.4503L 30.7112 33.7828L 30.7112 1.42578L 47.1903 1.42578C 47.5833 1.42578 47.901 1.10703 47.901 0.712892C 47.901 0.318749 47.5833 6.72035e-07 47.1903 6.72035e-07L 12.8099 6.72035e-07C 12.417 6.72035e-07 12.0992 0.318749 12.0992 0.712892C 12.0992 1.10703 12.417 1.42578 12.8099 1.42578L 29.2898 1.42578L 29.2898 33.7649L 21.7378 37.4503C 21.3851 37.6213 21.2378 38.049 21.4104 38.4028C 21.5324 38.6566 21.7862 38.8037 22.0489 38.8037C 22.1546 38.8037 22.2603 38.7813 22.36 38.7313L 29.9826 35.0115L 37.6068 38.7313C 37.955 38.9067 38.3859 38.7574 38.5563 38.4028C 38.729 38.049 38.5816 37.6213 38.2289 37.4503ZM 55.1717 10.0686C 58.8613 10.0686 59.9449 4.22285 59.9888 3.97353C 60.058 3.5861 59.7998 3.21585 59.4143 3.14643C 59.0355 3.08223 58.6589 3.33454 58.5897 3.72271C 58.5815 3.77123 57.6446 8.64278 55.1717 8.64278L 45.1721 8.64278C 44.7792 8.64278 44.4614 8.96153 44.4614 9.35567C 44.4614 9.74981 44.7792 10.0686 45.1721 10.0686L 50.7349 10.0686L 50.7349 37.5742L 47.6584 37.5742C 47.2655 37.5742 46.9477 37.893 46.9477 38.2871C 46.9477 38.6813 47.2655 39 47.6584 39L 55.4299 39C 55.8229 39 56.1406 38.6813 56.1406 38.2871C 56.1406 37.893 55.8229 37.5742 55.4299 37.5742L 52.1563 37.5742L 52.1563 10.0686L 55.1717 10.0686ZM 14.8281 8.64203L 4.82855 8.64203C 2.36456 8.64203 1.41871 3.77123 1.41052 3.72047C 1.34131 3.33305 0.966247 3.08148 0.585971 3.14493C 0.198996 3.21436 -0.0584909 3.58536 0.0114622 3.97204C 0.0561131 4.22136 1.14039 10.0671 4.82855 10.0671L 7.84397 10.0671L 7.84397 37.5727L 4.57032 37.5727C 4.17739 37.5727 3.85962 37.8915 3.85962 38.2856C 3.85962 38.6798 4.17739 38.9985 4.57032 38.9985L 12.3418 38.9985C 12.7347 38.9985 13.0525 38.6798 13.0525 38.2856C 13.0525 37.8915 12.7347 37.5727 12.3418 37.5727L 9.26536 37.5727L 9.26536 10.0686L 14.8281 10.0686C 15.221 10.0686 15.5388 9.74981 15.5388 9.35567C 15.5388 8.96153 15.221 8.64203 14.8281 8.64203Z"/>
</defs>
</svg>
