<svg width="42" height="44" viewBox="0 0 42 44" version="1.1" xmlns="http://www.w3.org/2000/svg" xmlns:xlink="http://www.w3.org/1999/xlink">
<title>noun_855905_cc</title>
<desc>Created using Figma</desc>
<g id="Canvas" transform="translate(8987 3081)">
<g id="noun_855905_cc">
<g id="Vector">
<use xlink:href="#path0_fill" transform="translate(-8987 -3081)" fill="#EE2324"/>
</g>
</g>
</g>
<defs>
<path id="path0_fill" d="M 37.001 44C 35.8518 44 34.8859 43.1365 34.6293 41.9786L 13.3779 41.9786C 13.1213 43.1365 12.1554 44 11.0061 44C 9.66139 44 8.56788 42.8182 8.56788 41.365C 8.56788 40.1234 9.36655 39.08 10.4385 38.8031L 10.4385 37.4088C 7.93505 37.7667 6.68288 38.6955 6.66805 38.706C 6.48243 38.8463 6.23748 38.8565 6.04466 38.729C 5.8514 38.6016 5.74623 38.3656 5.77634 38.1236L 9.02452 12.388L 3.38886 5.20104L 0.568106 5.20104C 0.254389 5.20104 1.88597e-08 4.92641 1.88597e-08 4.58737C 1.88597e-08 4.24787 0.254389 3.9737 0.568106 3.9737L 3.65269 3.9737C 3.81943 3.9737 3.97809 4.05282 4.08551 4.19037L 9.88432 11.5853L 36.388 11.5853C 37.8109 11.5853 39.0191 12.7353 39.1975 14.2612L 41.9953 38.1287C 42.0196 38.3302 41.9486 38.5326 41.8061 38.6665C 41.6645 38.8013 41.4699 38.8509 41.2879 38.799C 41.2573 38.7902 39.526 38.3017 37.5691 37.8789L 37.5691 38.8026C 38.6411 39.08 39.4402 40.1229 39.4402 41.3645C 39.4397 42.8177 38.3449 44 37.001 44ZM 37.001 39.9582C 36.2823 39.9582 35.6981 40.5889 35.6981 41.3654C 35.6981 42.1415 36.2828 42.7731 37.001 42.7731C 37.7192 42.7731 38.3031 42.1415 38.3031 41.3654C 38.3035 40.5889 37.7192 39.9582 37.001 39.9582ZM 11.0061 39.9582C 10.2875 39.9582 9.70364 40.5889 9.70364 41.3654C 9.70364 42.1415 10.2875 42.7731 11.0061 42.7731C 11.7248 42.7731 12.3091 42.1415 12.3091 41.3654C 12.3091 40.5889 11.7244 39.9582 11.0061 39.9582ZM 13.3779 40.7518L 34.6293 40.7518C 34.8419 39.7908 35.5435 39.0331 36.4329 38.8031L 36.4329 37.648C 35.2877 37.4299 34.1609 37.2694 33.3366 37.2694C 32.1802 37.2694 30.386 37.5928 28.4857 37.936C 26.1886 38.35 23.5858 38.8197 21.5134 38.8197C 19.6185 38.8197 18.3237 38.4282 17.0706 38.0505C 15.7977 37.6664 14.4831 37.2694 12.4543 37.2694C 12.1486 37.2694 11.8552 37.2786 11.5743 37.2956L 11.5743 38.8031C 12.4637 39.0331 13.1653 39.7908 13.3779 40.7518ZM 12.4547 36.042C 14.6386 36.042 16.0306 36.462 17.3762 36.8687C 18.6095 37.2404 19.7745 37.5928 21.5139 37.5928C 23.4914 37.5928 26.0452 37.1318 28.2992 36.7252C 30.2462 36.3732 32.0863 36.042 33.3371 36.042C 35.4239 36.042 39.1256 36.9579 40.7643 37.3913L 38.0716 14.4163C 37.9646 13.5026 37.2406 12.8135 36.3884 12.8135L 10.1167 12.8135L 7.05008 37.1116C 8.07887 36.6332 9.87218 36.042 12.4547 36.042ZM 31.8225 10.6151L 16.3133 10.6151C 16 10.6151 15.7456 10.34 15.7456 10.0014C 15.7456 5.5318 19.1745 1.8608 23.5 1.56362L 23.5 0.613213C 23.5 0.274175 23.7539 4.38714e-09 24.0676 4.38714e-09C 24.3813 4.38714e-09 24.6357 0.274175 24.6357 0.613213L 24.6357 1.56408C 28.9612 1.86126 32.3901 5.53226 32.3901 10.0019C 32.3897 10.34 32.1362 10.6151 31.8225 10.6151ZM 16.9074 9.38773L 31.2283 9.38773C 30.9177 5.68775 27.8255 2.77165 24.0676 2.77165C 20.3107 2.77165 17.2176 5.68775 16.9074 9.38773Z"/>
</defs>
</svg>
