<svg width="61" height="42" viewBox="0 0 61 42" version="1.1" xmlns="http://www.w3.org/2000/svg" xmlns:xlink="http://www.w3.org/1999/xlink">
<title>noun_203355_cc</title>
<desc>Created using Figma</desc>
<g id="Canvas" transform="translate(8803 3080)">
<g id="noun_203355_cc">
<g id="Group">
<g id="Vector">
<use xlink:href="#path0_fill" transform="translate(-8797.59 -3078.57)" fill="#EE2324"/>
</g>
</g>
<g id="Group">
<g id="Vector">
<use xlink:href="#path1_fill" transform="translate(-8803 -3078.57)" fill="#EE2324"/>
</g>
</g>
<g id="Group">
<g id="Vector">
<use xlink:href="#path2_fill" transform="translate(-8799.88 -3079.82)" fill="#EE2324"/>
</g>
</g>
<g id="Group">
<g id="Vector">
<use xlink:href="#path2_fill" transform="translate(-8797.4 -3079.82)" fill="#EE2324"/>
</g>
</g>
<g id="Group">
<g id="Vector">
<use xlink:href="#path3_fill" transform="translate(-8747.59 -3080)" fill="#EE2324"/>
</g>
</g>
<g id="Group">
<g id="Vector">
<use xlink:href="#path4_fill" transform="translate(-8799.71 -3062.41)" fill="#EE2324"/>
</g>
</g>
<g id="Group">
<g id="Vector">
<use xlink:href="#path5_fill" transform="translate(-8745.23 -3078.91)" fill="#EE2324"/>
</g>
</g>
<g id="Group">
<g id="Vector">
<use xlink:href="#path6_fill" transform="translate(-8790.78 -3078.99)" fill="#EE2324"/>
</g>
</g>
<g id="Group">
<g id="Vector">
<use xlink:href="#path7_fill" transform="translate(-8786.24 -3074.33)" fill="#EE2324"/>
</g>
</g>
</g>
</g>
<defs>
<path id="path0_fill" d="M 0.525878 16.8296C 0.277849 16.8296 0.112496 16.663 0.02982 16.4964C -0.0528564 16.2464 0.0298197 15.9131 0.360525 15.8298C 3.83293 14.5801 3.33688 12.0807 3.2542 11.9973L 2.34476 0.583204C 2.34476 0.333259 2.51011 0.0833156 2.84082 6.35642e-07C 3.08885 6.35642e-07 3.33688 0.166629 3.41955 0.499889L 4.32899 11.8307C 4.32899 11.8307 5.15576 15.1633 0.773907 16.7463C 0.691231 16.8296 0.608554 16.8296 0.525878 16.8296Z"/>
<path id="path1_fill" d="M 3.7825 16.8296C 3.69982 16.8296 3.69982 16.8296 3.61714 16.8296C -0.764707 15.2466 0.0620576 11.8307 0.0620576 11.7474L 0.971498 0.499889C 0.971498 0.249944 1.21953 6.35642e-07 1.55023 6.35642e-07C 1.79826 6.35642e-07 2.04629 0.249944 2.04629 0.583204L 1.05417 11.914C 1.05417 12.0807 0.47544 14.4968 3.94785 15.8298C 4.19588 15.9131 4.36123 16.2464 4.27855 16.4964C 4.19588 16.663 4.03053 16.8296 3.7825 16.8296Z"/>
<path id="path2_fill" d="M 0.496058 12.7472C 0.248029 12.7472 1.57693e-07 12.4972 1.57693e-07 12.2473L 1.57693e-07 0.499889C 1.57693e-07 0.249944 0.248029 6.35642e-07 0.496058 6.35642e-07C 0.744087 6.35642e-07 0.992117 0.249944 0.992117 0.499889L 0.992117 12.2473C 0.992117 12.4972 0.744087 12.7472 0.496058 12.7472Z"/>
<path id="path3_fill" d="M 2.85828 23.1707C 2.69292 23.1707 2.61025 23.0874 2.4449 23.0041C 2.27954 22.8375 0.626016 20.9212 0.29531 19.9214C -0.696807 16.6722 1.12207 8.67393 1.20475 8.34067L 1.3701 7.50753C 2.85828 0.259129 2.94095 -0.0741307 4.26377 0.00918424C 4.59448 0.00918424 4.92519 0.175814 5.17322 0.425759C 5.66928 1.00896 5.5866 1.92543 5.5866 2.00874C 5.5866 2.25869 5.25589 2.50863 5.00786 2.50863C 4.75983 2.50863 4.51181 2.25869 4.51181 1.92543C 4.51181 1.7588 4.51181 1.25891 4.34646 1.09228C 4.34646 1.09228 4.26378 1.00896 4.1811 1.00896C 4.01575 1.00896 4.01575 1.00896 4.01575 1.00896C 3.68504 1.17559 3.18898 3.50841 2.36222 7.67416L 2.19686 8.50731C 2.19686 8.59062 0.377984 16.5889 1.28742 19.5882C 1.53545 20.338 2.7756 21.7544 3.18898 22.3376C 3.35434 22.5875 3.35434 22.8375 3.18898 23.0874C 3.10631 23.1707 2.94095 23.1707 2.85828 23.1707Z"/>
<path id="path4_fill" d="M 1.57085 24.4113C 0.661411 24.4113 0 23.6614 0 22.8283L 0 0.49989C 0 0.249945 0.24803 -1.27128e-06 0.496059 -1.27128e-06C 0.744088 -1.27128e-06 0.992117 0.249945 0.992117 0.49989L 0.992117 22.8283C 0.992117 23.1615 1.24015 23.4115 1.57085 23.4115C 1.90156 23.4115 2.14959 23.1615 2.14959 22.8283L 2.14959 0.49989C 2.14959 0.249945 2.39762 -1.27128e-06 2.64565 -1.27128e-06C 2.89367 -1.27128e-06 3.1417 0.249945 3.1417 0.49989L 3.1417 22.8283C 3.22438 23.7447 2.48029 24.4113 1.57085 24.4113Z"/>
<path id="path5_fill" d="M 1.57085 40.7412C 0.661413 40.7412 0 39.9914 0 39.1582L 0 21.7454C 0 21.4955 0.248028 21.2455 0.496057 21.2455C 0.744087 21.2455 0.992114 21.4955 0.992114 21.7454L 0.992114 39.1582C 0.992114 39.4915 1.24015 39.7414 1.57085 39.7414C 1.90156 39.7414 2.14959 39.4915 2.14959 39.1582L 2.14959 0.499889C 2.14959 0.249945 2.39761 0 2.64564 0C 2.89367 0 3.23047 0.249945 3.23047 0.499889L 3.1417 39.1582C 3.22438 39.9914 2.48029 40.7412 1.57085 40.7412Z"/>
<path id="path6_fill" d="M 19.7597 39.9078C 8.84638 39.9078 -6.30771e-07 30.9931 -6.30771e-07 19.9956C -6.30771e-07 8.99801 8.84638 6.35642e-07 19.7597 6.35642e-07C 30.673 6.35642e-07 39.5193 8.99801 39.5193 19.9956C 39.5193 30.9931 30.673 39.9078 19.7597 39.9078ZM 19.7597 1.08309C 9.42511 1.08309 0.992117 9.58121 0.992117 19.9956C 0.992117 30.4099 9.42511 38.9081 19.7597 38.9081C 30.0942 38.9081 38.5272 30.4099 38.5272 19.9956C 38.5272 9.58121 30.0942 1.08309 19.7597 1.08309Z"/>
<path id="path7_fill" d="M 15.2125 30.6599C 6.86214 30.6599 -6.30771e-07 23.8281 -6.30771e-07 15.3299C -6.30771e-07 6.83182 6.77947 -6.35642e-07 15.2125 -6.35642e-07C 23.5628 -6.35642e-07 30.4249 6.83182 30.4249 15.3299C 30.4249 23.8281 23.5628 30.6599 15.2125 30.6599ZM 15.2125 0.999779C 7.3582 0.999779 0.992117 7.41503 0.992117 15.3299C 0.992117 23.2449 7.3582 29.5768 15.2125 29.5768C 23.0667 29.5768 29.3501 23.1615 29.3501 15.3299C 29.3501 7.41503 22.984 0.999779 15.2125 0.999779Z"/>
</defs>
</svg>
