<svg width="28" height="40" viewBox="0 0 28 40" version="1.1" xmlns="http://www.w3.org/2000/svg" xmlns:xlink="http://www.w3.org/1999/xlink">
<title>noun_600351_cc</title>
<desc>Created using Figma</desc>
<g id="Canvas" transform="translate(9232 2918)">
<g id="noun_600351_cc">
<g id="Group">
<g id="Vector">
<use xlink:href="#path0_fill" transform="translate(-9232 -2918)" fill="#EE2324"/>
</g>
<g id="Vector">
<use xlink:href="#path1_fill" transform="translate(-9221.97 -2913.94)" fill="#EE2324"/>
</g>
<g id="Vector">
<use xlink:href="#path2_fill" transform="translate(-9221.97 -2895.12)" fill="#EE2324"/>
</g>
<g id="Vector">
<use xlink:href="#path3_fill" transform="translate(-9228.25 -2901.39)" fill="#EE2324"/>
</g>
</g>
</g>
</g>
<defs>
<path id="path0_fill" d="M 27.0437 40L 3.92257e-07 40L 3.92257e-07 2.57069C 3.92257e-07 1.13111 1.13111 1.96128e-07 2.57069 1.96128e-07L 24.473 1.96128e-07C 25.9126 1.96128e-07 27.0437 1.13111 27.0437 2.57069L 27.0437 40ZM 1.02828 38.9717L 26.0154 38.9717L 26.0154 2.57069C 26.0154 1.69666 25.347 1.02828 24.473 1.02828L 2.57069 1.02828C 1.69666 1.02828 1.02828 1.69666 1.02828 2.57069L 1.02828 38.9717Z"/>
<path id="path1_fill" d="M 3.49614 6.99229C 1.54242 6.99229 3.92257e-07 5.39846 3.92257e-07 3.49614C 3.92257e-07 1.59383 1.54242 0 3.49614 0C 5.44987 0 6.99229 1.59383 6.99229 3.49614C 6.99229 5.39846 5.44987 6.99229 3.49614 6.99229ZM 3.49614 1.02828C 2.10797 1.02828 1.02828 2.15938 1.02828 3.49614C 1.02828 4.88432 2.15938 5.96401 3.49614 5.96401C 4.8329 5.96401 5.96401 4.8329 5.96401 3.49614C 5.96401 2.15938 4.88432 1.02828 3.49614 1.02828Z"/>
<path id="path2_fill" d="M 3.49614 6.99229C 1.54242 6.99229 3.92257e-07 5.39846 3.92257e-07 3.49614C 3.92257e-07 1.54242 1.59383 -7.84514e-07 3.49614 -7.84514e-07C 5.39846 -7.84514e-07 6.99229 1.59383 6.99229 3.49614C 6.99229 5.39846 5.44987 6.99229 3.49614 6.99229ZM 3.49614 0.976864C 2.10797 0.976864 1.02828 2.10797 1.02828 3.44473C 1.02828 4.78149 2.15938 5.91259 3.49614 5.91259C 4.8329 5.91259 5.96401 4.78149 5.96401 3.44473C 5.96401 2.10797 4.88432 0.976864 3.49614 0.976864Z"/>
<path id="path3_fill" d="M 9.76864 19.5373C 4.37018 19.5373 0 15.1671 0 9.76864C 0 4.37018 4.37018 7.84514e-07 9.76864 7.84514e-07C 15.1671 7.84514e-07 19.5373 4.37018 19.5373 9.76864C 19.5373 15.1671 15.1671 19.5373 9.76864 19.5373ZM 9.76864 0.976863C 4.93573 0.976863 1.02828 4.88432 1.02828 9.71722C 1.02828 14.5501 4.93573 18.4576 9.76864 18.4576C 14.6015 18.4576 18.509 14.5501 18.509 9.71722C 18.509 4.88432 14.6015 0.976863 9.76864 0.976863Z"/>
</defs>
</svg>
