<svg width="47" height="49" viewBox="0 0 47 49" version="1.1" xmlns="http://www.w3.org/2000/svg" xmlns:xlink="http://www.w3.org/1999/xlink">
<title>noun_899810_cc</title>
<desc>Created using Figma</desc>
<g id="Canvas" transform="translate(9064 2927)">
<g id="noun_899810_cc">
<g id="Group">
<g id="Vector">
<use xlink:href="#path0_fill" transform="translate(-9064 -2904.61)" fill="#EE2324"/>
</g>
<g id="Vector">
<use xlink:href="#path1_fill" transform="translate(-9052.57 -2927)" fill="#EE2324"/>
</g>
<g id="Vector">
<use xlink:href="#path2_fill" transform="translate(-9047.74 -2916.86)" fill="#EE2324"/>
</g>
<g id="Vector">
<use xlink:href="#path3_fill" transform="translate(-9042.92 -2906.73)" fill="#EE2324"/>
</g>
</g>
</g>
</g>
<defs>
<path id="path0_fill" d="M 19.3954 22.842L 12.4564 22.842L 12.4564 18.4393C 12.6461 18.371 12.8247 18.2776 12.9868 18.1555L 19.3725 13.3534L 9.28174 -6.59407e-07L 2.89663 4.80211C 1.99802 5.47719 1.81771 6.75612 2.49504 7.65254L 8.82863 16.0339L 8.82863 22.842L 1.88913 22.842C 0.847679 22.842 2.05452e-07 23.6882 2.05452e-07 24.7265C 2.05452e-07 25.7654 0.847094 26.6122 1.88913 26.6122L 19.3954 26.6122C 20.4368 26.6122 21.2845 25.766 21.2845 24.7265C 21.2845 23.6882 20.4374 22.842 19.3954 22.842ZM 3.0746 7.21689C 2.63788 6.63991 2.7532 5.81532 3.33276 5.38025L 9.1389 1.0138L 18.3562 13.2103L 12.5495 17.5779C 12.5185 17.6007 12.4881 17.6223 12.4559 17.6416L 12.4559 12.6357C 13.5992 11.9869 14.2999 10.7938 14.2999 9.47048C 14.2999 7.45866 12.6584 5.82175 10.6417 5.82175C 8.62432 5.82175 6.98341 7.45866 6.98341 9.47048C 6.98341 10.7938 7.68415 11.9869 8.82746 12.6357L 8.82746 14.8315L 3.0746 7.21689ZM 19.3954 25.8875L 1.88913 25.8875C 1.24752 25.8875 0.725328 25.3671 0.725328 24.7265C 0.725328 24.0865 1.2481 23.5667 1.88913 23.5667L 9.55396 23.5667L 9.55396 16.994L 9.55396 12.193L 9.35082 12.0937C 9.22379 12.0324 9.10378 11.9612 8.98962 11.8841C 8.1917 11.3433 7.70932 10.4516 7.70932 9.47048C 7.70932 7.85752 9.02474 6.54472 10.6422 6.54472C 12.2597 6.54472 13.5746 7.85752 13.5746 9.47048C 13.5746 10.4516 13.0934 11.3433 12.2943 11.8841C 12.1807 11.9618 12.0595 12.0324 11.9331 12.0937L 11.7299 12.193L 11.7299 18.611L 11.7299 23.5655L 19.3954 23.5655C 20.037 23.5655 20.558 24.0859 20.558 24.7253C 20.5586 25.3671 20.037 25.8875 19.3954 25.8875Z"/>
<path id="path1_fill" d="M 0.483683 21.3437C 0.612474 21.3437 0.740095 21.2929 0.836103 21.1924L 20.1167 0.813103C 20.3 0.61922 20.2912 0.31438 20.0974 0.131592C 19.9025 -0.051195 19.5963 -0.0424352 19.4136 0.150864L 0.131849 20.5302C -0.0513855 20.7241 -0.042604 21.0289 0.151753 21.2123C 0.24542 21.3005 0.364844 21.3437 0.483683 21.3437Z"/>
<path id="path2_fill" d="M 0.0973269 17.4027C 0.192164 17.5282 0.337349 17.5942 0.483702 17.5942C 0.585564 17.5942 0.687425 17.5633 0.775237 17.4973L 22.8887 0.867738C 23.1023 0.707726 23.1451 0.404637 22.9835 0.192067C 22.8237 -0.0205039 22.5199 -0.0631349 22.3068 0.096877L 0.192165 16.7276C -0.0209253 16.887 -0.0630766 17.1907 0.0973269 17.4027Z"/>
<path id="path3_fill" d="M 25.8613 0.260603C 25.7384 0.0240891 25.4468 -0.0681806 25.2097 0.0538722L 0.261131 12.9342C 0.0246236 13.0575 -0.0684573 13.3483 0.0538943 13.5842C 0.139365 13.7507 0.309136 13.8453 0.483589 13.8453C 0.558522 13.8453 0.634624 13.8283 0.70546 13.7904L 25.6529 0.91058C 25.8911 0.788527 25.9842 0.497701 25.8613 0.260603Z"/>
</defs>
</svg>
