<svg width="40" height="49" viewBox="0 0 40 49" version="1.1" xmlns="http://www.w3.org/2000/svg" xmlns:xlink="http://www.w3.org/1999/xlink">
<title>noun_1496863_cc</title>
<desc>Created using Figma</desc>
<g id="Canvas" transform="translate(8860 2927)">
<g id="noun_1496863_cc">
<g id="Group">
<g id="Vector">
<use xlink:href="#path0_fill" transform="translate(-8860 -2927)" fill="#EE2324"/>
</g>
</g>
</g>
</g>
<defs>
<path id="path0_fill" d="M 9.11626 0C 4.08824 0 0 4.08801 0 9.11579C 0 14.1436 4.08824 18.2316 9.11626 18.2316C 11.0942 18.2316 12.9455 17.5752 14.44 16.5046L 23.9302 28.1664L 23.9302 47.858L 18.8023 47.858C 18.7668 47.8547 18.731 47.8547 18.6955 47.858C 18.6206 47.865 18.5479 47.8867 18.4814 47.9218C 18.415 47.9569 18.3561 48.0048 18.3081 48.0626C 18.2601 48.1205 18.2241 48.1872 18.2019 48.259C 18.1797 48.3309 18.1719 48.4063 18.179 48.4812C 18.186 48.556 18.2077 48.6287 18.2428 48.6952C 18.2779 48.7616 18.3258 48.8205 18.3837 48.8684C 18.4415 48.9164 18.5083 48.9524 18.5801 48.9746C 18.652 48.9967 18.7275 49.0045 18.8023 48.9975L 30.1976 48.9975C 30.2731 48.9985 30.3481 48.9846 30.4181 48.9564C 30.4882 48.9283 30.552 48.8865 30.6057 48.8335C 30.6595 48.7805 30.7022 48.7173 30.7313 48.6476C 30.7605 48.578 30.7755 48.5033 30.7755 48.4278C 30.7755 48.3523 30.7605 48.2775 30.7313 48.2078C 30.7022 48.1382 30.6595 48.075 30.6057 48.022C 30.552 47.969 30.4882 47.9272 30.4181 47.899C 30.3481 47.8709 30.2731 47.8569 30.1976 47.858L 25.0697 47.858L 25.0697 28.1664L 39.9015 9.93479C 39.9643 9.86144 39.9983 9.77746 39.9999 9.6916C 40.0016 9.60575 39.9708 9.52114 39.9108 9.44661C 39.8508 9.37207 39.7638 9.31035 39.6588 9.26783C 39.5538 9.2253 39.4347 9.20353 39.3139 9.20481L 18.2325 9.20481C 18.2348 9.17519 18.2348 9.14541 18.2325 9.11579C 18.2325 4.08801 14.1443 0 9.11626 0ZM 8.5465 1.17508L 8.5465 7.72705L 3.91714 3.09793C 5.17987 2.00824 6.77611 1.29958 8.5465 1.17508ZM 9.68603 1.17508C 11.4564 1.29958 13.0527 2.00824 14.3154 3.09793L 9.68603 7.72705L 9.68603 1.17508ZM 3.09811 3.89913L 7.74526 8.54605L 1.15734 8.54605C 1.2848 6.77267 2.00248 5.16142 3.09811 3.89913ZM 15.1344 3.89913C 16.3489 5.29836 17.093 7.1134 17.093 9.11579C 17.0907 9.14541 17.0907 9.17519 17.093 9.20481L 9.81067 9.20481L 15.1344 3.89913ZM 1.15734 9.68555L 7.26452 9.68555L 3.0803 14.3325C 1.99029 13.0697 1.28183 11.4561 1.15734 9.68555ZM 8.5465 9.9526L 8.5465 17.0743C 6.76344 16.949 5.14832 16.2367 3.88153 15.1337L 8.5465 9.9526ZM 10.879 10.1663L 38.1209 10.1663L 34.8092 14.2434C 34.7914 14.2426 34.7736 14.2426 34.7558 14.2434L 14.2442 14.2434C 14.2264 14.2426 14.2085 14.2426 14.1907 14.2434L 10.879 10.1663ZM 9.68603 10.6648L 13.7278 15.6144C 12.5745 16.427 11.1777 16.9644 9.68603 17.0743L 9.68603 10.6648ZM 15.1166 15.3829L 33.8833 15.3829L 24.6424 26.7777C 24.5729 26.7583 24.5004 26.7523 24.4287 26.76C 24.4046 26.7644 24.3809 26.7703 24.3575 26.7777L 15.1166 15.3829Z"/>
</defs>
</svg>
