<svg width="40" height="40" viewBox="0 0 40 40" version="1.1" xmlns="http://www.w3.org/2000/svg" xmlns:xlink="http://www.w3.org/1999/xlink">
<title>noun_1416081_cc</title>
<desc>Created using Figma</desc>
<g id="Canvas" transform="translate(8702 2918)">
<g id="noun_1416081_cc">
<g id="Vector">
<use xlink:href="#path0_fill" transform="translate(-8686.87 -2908.49)" fill="#EE2324"/>
</g>
<g id="Vector">
<use xlink:href="#path1_fill" transform="translate(-8702 -2918)" fill="#EE2324"/>
</g>
</g>
</g>
<defs>
<path id="path0_fill" d="M 1.15942 22.7246L 0 22.7246L 0 0L 6.14493 0C 9.73913 0 12.6377 2.89855 12.6377 6.49275C 12.6377 10.087 9.73913 12.9855 6.14493 12.9855L 1.15942 12.9855L 1.15942 22.7246ZM 1.15942 11.8261L 6.14493 11.8261C 9.10145 11.8261 11.4783 9.44928 11.4783 6.49275C 11.4783 3.53623 9.10145 1.15942 6.14493 1.15942L 1.15942 1.15942L 1.15942 11.8261Z"/>
<path id="path1_fill" d="M 20 40C 8.98551 40 -2.21142e-07 31.0145 -2.21142e-07 20C -2.21142e-07 8.98551 8.98551 2.21142e-07 20 2.21142e-07C 31.0145 2.21142e-07 40 8.98551 40 20C 40 31.0145 31.0145 40 20 40ZM 20 1.15942C 9.62319 1.15942 1.15942 9.62319 1.15942 20C 1.15942 30.3768 9.62319 38.8406 20 38.8406C 30.3768 38.8406 38.8406 30.3768 38.8406 20C 38.8406 9.62319 30.3768 1.15942 20 1.15942Z"/>
</defs>
</svg>
