<svg width="45" height="50" viewBox="0 0 45 50" version="1.1" xmlns="http://www.w3.org/2000/svg" xmlns:xlink="http://www.w3.org/1999/xlink">
<title>noun_825409_cc</title>
<desc>Created using Figma</desc>
<g id="Canvas" transform="translate(8872 1656)">
<g id="noun_825409_cc">
<g id="Group">
<g id="Group">
<g id="Vector">
<use xlink:href="#path0_fill" transform="translate(-8866.04 -1656)"/>
</g>
<g id="Vector">
<use xlink:href="#path1_fill" transform="translate(-8871.28 -1630.63)"/>
</g>
<g id="Vector">
<use xlink:href="#path2_fill" transform="translate(-8863.87 -1630.62)"/>
</g>
<g id="Vector">
<use xlink:href="#path3_fill" transform="translate(-8855.83 -1630.79)"/>
</g>
</g>
</g>
<g id="Group">
<g id="Group">
<g id="Vector">
<use xlink:href="#path4_fill" transform="translate(-8866.18 -1656)" fill="#FFFFFF"/>
</g>
<g id="Vector">
<use xlink:href="#path1_fill" transform="translate(-8871.28 -1630.63)" fill="#EE2324"/>
</g>
<g id="Vector">
<use xlink:href="#path5_fill" transform="translate(-8863.87 -1630.62)" fill="#EE2324"/>
</g>
<g id="Vector">
<use xlink:href="#path3_fill" transform="translate(-8855.83 -1630.79)" fill="#EE2324"/>
</g>
</g>
</g>
</g>
</g>
<defs>
<path id="path0_fill" d="M 1.69873e-07 0L 1.69873e-07 20.4297L 1.5625 20.4297L 1.5625 1.5625L 26.875 1.5625L 36.5297 11.2297L 36.5297 48.4375L 1.5625 48.4375L 1.5625 44.1906L 1.69873e-07 44.1906L 1.69873e-07 50L 38.0922 50L 38.0922 10.5813L 27.5219 0L 1.69873e-07 0Z"/>
<path id="path1_fill" d="M 5.97188 11.8078L 2.09844 11.8078L 2.09844 8.0125L 4.92969 8.0125L 4.92969 5.90469L 2.09844 5.90469L 2.09844 2.10937L 5.97188 2.10937L 5.97188 9.53674e-07L -7.07805e-09 9.53674e-07L -7.07805e-09 13.9172L 5.97188 13.9172L 5.97188 11.8078Z"/>
<path id="path2_fill" d="M 3.30938 8.66719C 4.21875 8.66719 4.99375 8.34219 5.63281 7.69062C 6.27344 7.04062 6.59219 6.25625 6.59219 5.3375L 6.59219 3.31875C 6.59219 2.36406 6.31094 1.57969 5.75 0.965626C 5.14219 0.321876 4.32969 9.05991e-07 3.30938 9.05991e-07L -1.19209e-07 9.05991e-07L -1.19209e-07 13.9047L 2.09844 13.9047L 2.09844 8.66562L 3.30938 8.66562L 3.30938 8.66719ZM 2.09844 2.14219L 3.36406 2.14219C 3.72656 2.14219 4.01719 2.25313 4.23594 2.475C 4.45469 2.69844 4.56406 2.98906 4.56406 3.35313L 4.56406 5.38437C 4.56406 5.71719 4.44688 6.00156 4.2125 6.23906C 3.98125 6.475 3.69687 6.59375 3.36406 6.59375L 2.09844 6.59375L 2.09844 2.14219Z"/>
<path id="path3_fill" d="M 3.50625 12.3141C 3.18281 12.3281 2.89219 12.1984 2.64219 11.9234C 2.3 11.5594 2.0875 10.9719 1.99844 10.1609L -6.67572e-07 10.3047C 0.0437493 11.0453 0.198437 11.7016 0.460937 12.275C 0.723437 12.8484 1.07969 13.3016 1.53281 13.6344C 2.07344 14.0422 2.75312 14.2453 3.575 14.2453C 4.01719 14.2453 4.40781 14.1938 4.74062 14.0891C 5.35938 13.8969 5.84219 13.5672 6.18437 13.1016C 6.7 12.4141 6.95312 11.5844 6.9375 10.6156C 6.92813 10.2234 6.825 9.77969 6.62656 9.28281C 6.54375 9.08281 6.4375 8.86406 6.30625 8.62812C 6.02187 8.125 5.625 7.61562 5.10625 7.09687C 4.95 6.93437 4.62656 6.65 4.13906 6.24219C 3.72656 5.90156 3.41563 5.60781 3.20781 5.35625C 2.66094 4.69687 2.3875 4.05 2.3875 3.41406C 2.3875 3.00625 2.47031 2.66562 2.63125 2.39375C 2.82969 2.05312 3.12188 1.88281 3.50781 1.88281C 3.87031 1.88281 4.14844 1.99688 4.34063 2.22813C 4.60625 2.54531 4.77031 2.98906 4.82812 3.55937L 6.83594 3.19375C 6.78437 2.5875 6.63125 2.05156 6.375 1.58594C 6.12188 1.11875 5.78594 0.757813 5.37031 0.498438C 4.83906 0.165625 4.19844 -4.76837e-08 3.45 -4.76837e-08C 2.67187 -4.76837e-08 2.02187 0.196876 1.49687 0.589064C 0.645312 1.24063 0.220313 2.19844 0.220313 3.46563C 0.220313 4.16875 0.376563 4.82031 0.6875 5.42031C 0.976563 5.95469 1.46719 6.55781 2.1625 7.23125C 2.99219 8.01562 3.6125 8.60469 4.02656 8.99687C 4.55156 9.56719 4.81406 10.1406 4.81406 10.7188C 4.81406 11.1203 4.74375 11.4266 4.60312 11.6422C 4.32969 12.0719 3.96406 12.2984 3.50625 12.3141Z"/>
<path id="path4_fill" d="M 0.00156261 0L 0.00156261 20.5766L 3.12656 20.5766L 3.12656 3.125L 26.4062 3.125L 35.25 12.0063L 35.25 46.875L 3.12656 46.875L 3.125 43.5719L -1.49012e-07 43.5719L 0.00156261 50L 38.375 50L 38.375 10.7141L 27.7031 0L 0.00156261 0Z"/>
<path id="path5_fill" d="M 2.09844 8.66719L 3.30781 8.66719C 4.21719 8.66719 4.99219 8.34219 5.63125 7.69062C 6.27187 7.04062 6.59063 6.25625 6.59063 5.3375L 6.59063 3.31875C 6.59063 2.36406 6.30937 1.57969 5.74844 0.965626C 5.14062 0.321876 4.32812 9.05991e-07 3.30781 9.05991e-07L -1.19209e-07 9.05991e-07L -1.19209e-07 13.9047L 2.09844 13.9047L 2.09844 8.66719ZM 2.09844 2.14219L 3.36406 2.14219C 3.72656 2.14219 4.01719 2.25313 4.23594 2.475C 4.45469 2.69844 4.56406 2.98906 4.56406 3.35313L 4.56406 5.38437C 4.56406 5.71719 4.44688 6.00156 4.2125 6.23906C 3.98125 6.475 3.69687 6.59375 3.36406 6.59375L 2.09844 6.59375L 2.09844 2.14219Z"/>
</defs>
</svg>
