<svg width="44" height="50" viewBox="0 0 44 50" version="1.1" xmlns="http://www.w3.org/2000/svg" xmlns:xlink="http://www.w3.org/1999/xlink">
<title>noun_825418_cc</title>
<desc>Created using Figma</desc>
<g id="Canvas" transform="translate(9070 1656)">
<g id="noun_825418_cc">
<g id="Group">
<g id="Group">
<g id="Vector">
<use xlink:href="#path0_fill" transform="translate(-9064.77 -1656)"/>
</g>
<g id="Vector">
<use xlink:href="#path1_fill" transform="translate(-9070 -1630.64)"/>
</g>
<g id="Vector">
<use xlink:href="#path2_fill" transform="translate(-9061.73 -1630.65)"/>
</g>
<g id="Vector">
<use xlink:href="#path3_fill" transform="translate(-9053.3 -1630.65)"/>
</g>
</g>
</g>
<g id="Group">
<g id="Group">
<g id="Vector">
<use xlink:href="#path4_fill" transform="translate(-9064.91 -1656)" fill="#FFFFFF"/>
</g>
<g id="Vector">
<use xlink:href="#path1_fill" transform="translate(-9070 -1630.64)" fill="#EE2324"/>
</g>
<g id="Vector">
<use xlink:href="#path2_fill" transform="translate(-9061.73 -1630.65)" fill="#EE2324"/>
</g>
<g id="Vector">
<use xlink:href="#path3_fill" transform="translate(-9053.3 -1630.65)" fill="#EE2324"/>
</g>
</g>
</g>
</g>
</g>
<defs>
<path id="path0_fill" d="M 1.5625 1.5625L 26.8766 1.5625L 36.5281 11.2297L 36.5281 48.4375L 1.5625 48.4375L 1.5625 44.1906L 1.69873e-07 44.1906L 1.69873e-07 50L 38.0906 50L 38.0906 10.5828L 27.5234 0L 1.69873e-07 0L 1.69873e-07 20.4297L 1.5625 20.4297L 1.5625 1.5625Z"/>
<path id="path1_fill" d="M 2.09844 8.66719L 3.30781 8.66719C 4.21875 8.66719 4.99219 8.34219 5.63281 7.69063C 6.27344 7.04063 6.59219 6.25625 6.59219 5.3375L 6.59219 3.31875C 6.59219 2.36406 6.31094 1.57969 5.74844 0.965626C 5.14219 0.321876 4.32812 1.40667e-06 3.30781 1.40667e-06L -7.07805e-09 1.40667e-06L -7.07805e-09 13.9047L 2.09844 13.9047L 2.09844 8.66719ZM 2.09844 2.14375L 3.36406 2.14375C 3.72656 2.14375 4.01562 2.25469 4.23594 2.47656C 4.45312 2.7 4.5625 2.99063 4.5625 3.35469L 4.5625 5.38594C 4.5625 5.71875 4.44531 6.00313 4.2125 6.24063C 3.97969 6.47656 3.69688 6.59531 3.36406 6.59531L 2.09844 6.59531L 2.09844 2.14375Z"/>
<path id="path2_fill" d="M 6.59219 10.5859L 6.59219 3.31875C 6.59219 2.40781 6.27188 1.62813 5.63281 0.976563C 4.99219 0.325001 4.21406 5.96046e-07 3.29688 5.96046e-07L -2.26498e-07 5.96046e-07L -2.26498e-07 13.9156L 3.29531 13.9156C 4.20625 13.9156 4.98281 13.5906 5.62656 12.9391C 6.27031 12.2875 6.59219 11.5031 6.59219 10.5859ZM 4.55156 10.6297C 4.55156 10.9563 4.4375 11.2391 4.20781 11.4797C 3.97969 11.7188 3.69688 11.8391 3.36406 11.8391L 2.09844 11.8391L 2.09844 2.14062L 3.36406 2.14062C 3.68906 2.14062 3.96875 2.25781 4.20156 2.49531C 4.43437 2.73281 4.55156 3.01719 4.55156 3.35L 4.55156 10.6297Z"/>
<path id="path3_fill" d="M 5.97031 2.10781L 5.97031 5.96046e-07L -5.96046e-07 5.96046e-07L -5.96046e-07 13.9156L 2.09844 13.9156L 2.09844 8.0125L 4.92656 8.0125L 4.92656 5.90313L 2.09844 5.90313L 2.09844 2.10781L 5.97031 2.10781Z"/>
<path id="path4_fill" d="M 4.47035e-08 0L 4.47035e-08 20.5766L 3.125 20.5766L 3.125 3.125L 26.4063 3.125L 35.25 12.0063L 35.25 46.875L 3.125 46.875L 3.125 43.5719L 4.47035e-08 43.5719L 4.47035e-08 50L 38.375 50L 38.375 10.7141L 27.7031 0L 4.47035e-08 0Z"/>
</defs>
</svg>
