<svg width="39" height="48" viewBox="0 0 39 48" version="1.1" xmlns="http://www.w3.org/2000/svg" xmlns:xlink="http://www.w3.org/1999/xlink">
<title>noun_1496863_cc</title>
<desc>Created using Figma</desc>
<g id="Canvas" transform="translate(4191 -98)">
<g id="noun_1496863_cc">
<g id="Group">
<g id="Vector">
<use xlink:href="#path0_fill" transform="translate(-4191 98)" fill="#FFFFFF"/>
</g>
</g>
</g>
</g>
<defs>
<path id="path0_fill" d="M 8.88836 9.57121e-06C 3.98603 9.57121e-06 0 4.00459 0 8.92976C 0 13.8549 3.98603 17.8595 8.88836 17.8595C 10.8168 17.8595 12.6219 17.2165 14.079 16.1678L 23.3319 27.5916L 23.3319 46.8813L 18.3322 46.8813C 18.2976 46.878 18.2627 46.878 18.2281 46.8813C 18.1551 46.8882 18.0842 46.9094 18.0194 46.9438C 17.9546 46.9782 17.8972 47.0251 17.8504 47.0818C 17.8036 47.1384 17.7685 47.2038 17.7468 47.2742C 17.7252 47.3445 17.7176 47.4185 17.7245 47.4918C 17.7313 47.5651 17.7525 47.6363 17.7867 47.7014C 17.821 47.7665 17.8676 47.8242 17.9241 47.8711C 17.9805 47.9181 18.0456 47.9534 18.1156 47.9751C 18.1857 47.9968 18.2593 48.0044 18.3322 47.9975L 29.4427 47.9975C 29.5163 47.9986 29.5894 47.9849 29.6577 47.9573C 29.726 47.9297 29.7882 47.8888 29.8406 47.8369C 29.893 47.7849 29.9346 47.7231 29.963 47.6548C 29.9914 47.5866 30.0061 47.5134 30.0061 47.4395C 30.0061 47.3655 29.9914 47.2923 29.963 47.224C 29.9346 47.1558 29.893 47.0939 29.8406 47.042C 29.7882 46.99 29.726 46.9491 29.6577 46.9215C 29.5894 46.8939 29.5163 46.8803 29.4427 46.8813L 24.443 46.8813L 24.443 27.5916L 38.9039 9.73205C 38.9652 9.6602 38.9983 9.57793 38.9999 9.49383C 39.0015 9.40972 38.9715 9.32685 38.913 9.25383C 38.8545 9.18081 38.7697 9.12036 38.6673 9.0787C 38.565 9.03704 38.4488 9.01571 38.331 9.01697L 17.7767 9.01697C 17.779 8.98795 17.779 8.95878 17.7767 8.92976C 17.7767 4.00459 13.7907 9.57121e-06 8.88836 9.57121e-06ZM 8.33283 1.1511L 8.33283 7.56936L 3.81922 3.03472C 5.05038 1.96726 6.60671 1.27307 8.33283 1.1511ZM 9.44388 1.1511C 11.17 1.27307 12.7263 1.96726 13.9575 3.03472L 9.44388 7.56936L 9.44388 1.1511ZM 3.02065 3.81957L 7.55163 8.37165L 1.12841 8.37165C 1.25268 6.63446 1.95242 5.05609 3.02065 3.81957ZM 14.7561 3.81957C 15.9402 5.19024 16.6657 6.96824 16.6657 8.92976C 16.6634 8.95878 16.6634 8.98795 16.6657 9.01697L 9.5654 9.01697L 14.7561 3.81957ZM 1.12841 9.4879L 7.08291 9.4879L 3.00329 14.04C 1.94053 12.803 1.24978 11.2223 1.12841 9.4879ZM 8.33283 9.74949L 8.33283 16.7259C 6.59435 16.6031 5.01961 15.9054 3.7845 14.8248L 8.33283 9.74949ZM 10.607 9.95879L 37.1679 9.95879L 33.9389 13.9528C 33.9216 13.952 33.9042 13.952 33.8869 13.9528L 13.8881 13.9528C 13.8707 13.952 13.8533 13.952 13.836 13.9528L 10.607 9.95879L 10.607 9.95879ZM 9.44388 10.4471L 13.3846 15.2957C 12.2601 16.0918 10.8983 16.6182 9.44388 16.7259L 9.44388 10.4471ZM 14.7387 15.069L 33.0362 15.069L 24.0263 26.2312C 23.9586 26.2123 23.8879 26.2064 23.818 26.2139C 23.7945 26.2182 23.7713 26.224 23.7486 26.2312L 14.7387 15.069Z"/>
</defs>
</svg>
