<svg width="55" height="39" viewBox="0 0 55 39" version="1.1" xmlns="http://www.w3.org/2000/svg" xmlns:xlink="http://www.w3.org/1999/xlink">
<title>noun_902535_cc</title>
<desc>Created using Figma</desc>
<g id="Canvas" transform="translate(5038 -107)">
<g id="noun_902535_cc">
<g id="Vector">
<use xlink:href="#path0_fill" transform="translate(-5037.92 118.84)" fill="#FFFFFF"/>
</g>
<g id="Vector">
<use xlink:href="#path1_fill" transform="translate(-5037.84 130.68)" fill="#FFFFFF"/>
</g>
<g id="Vector">
<use xlink:href="#path2_fill" transform="translate(-5038 107)" fill="#FFFFFF"/>
</g>
</g>
</g>
<defs>
<path id="path0_fill" d="M 7.25961 -9.08069e-07C 5.27308 -9.08069e-07 3.60727 1.81272 3.60822 3.84473C 3.60881 5.14787 4.29496 6.36519 5.30924 7.06848C 3.67146 7.60119 2.5284 8.78398 1.76975 10.0902C 0.740408 11.8624 0.312377 13.8907 9.672e-08 15.0432L 1.04786 15.3201C 1.37613 14.1089 1.79957 12.1949 2.71483 10.6191C 3.63009 9.04321 4.94643 7.8404 7.25961 7.8404C 9.57279 7.8404 10.8731 9.04329 11.7868 10.6191C 12.7005 12.1948 13.1168 14.1085 13.4452 15.3201L 14.5016 15.3201C 14.8299 14.1089 15.2533 12.1949 16.1686 10.6191C 17.0838 9.04321 18.391 7.8404 20.7042 7.8404C 23.0174 7.8404 24.3268 9.04329 25.2405 10.6191C 26.1542 12.1948 26.57 14.1085 26.8983 15.3201L 27.9468 15.3201C 28.2751 14.1089 28.6979 12.1949 29.6132 10.6191C 30.5284 9.04321 31.8448 7.8404 34.158 7.8404C 36.4711 7.8404 37.772 9.04329 38.6857 10.6191C 39.5994 12.1948 40.0152 14.1085 40.3436 15.3201L 41.4005 15.3201C 41.7288 14.1089 42.1516 12.1949 43.0669 10.6191C 43.9822 9.04321 45.29 7.8404 47.6032 7.8404C 49.9164 7.8404 51.2257 9.04329 52.1394 10.6191C 53.0531 12.1948 53.4689 14.1085 53.7973 15.3201L 54.8451 15.0432C 54.5329 13.8911 54.1116 11.8625 53.0839 10.0902C 52.3265 8.78392 51.1808 7.60117 49.5444 7.06848C 50.5585 6.36707 51.2445 5.15727 51.2454 3.85305C 51.247 1.82051 49.5896 -9.08069e-07 47.6032 -9.08069e-07C 45.6166 -9.08069e-07 43.9593 1.81272 43.9603 3.84473C 43.9609 5.14787 44.6385 6.36519 45.6528 7.06848C 44.015 7.60119 42.872 8.78398 42.1133 10.0902C 41.5374 11.0817 41.1513 12.1503 40.8678 13.1036C 40.584 12.1508 40.2053 11.081 39.6308 10.0902C 38.8734 8.78392 37.7276 7.60117 36.0913 7.06848C 37.1053 6.36707 37.7913 5.15727 37.7923 3.85305C 37.7939 1.82051 36.1444 -9.08069e-07 34.158 -9.08069e-07C 32.1714 -9.08069e-07 30.5062 1.81272 30.5072 3.84473C 30.5078 5.14787 31.1939 6.36519 32.2082 7.06848C 30.5704 7.60119 29.4267 8.78398 28.6681 10.0902C 28.0922 11.0817 27.7089 12.1489 27.4244 13.1024C 27.142 12.1489 26.7605 11.0817 26.1856 10.0902C 25.4281 8.78392 24.2824 7.60117 22.6461 7.06848C 23.6601 6.36707 24.3462 5.15727 24.3471 3.85305C 24.3486 1.82051 22.6907 -9.08069e-07 20.7042 -9.08069e-07C 18.7177 -9.08069e-07 17.061 1.81272 17.0619 3.84473C 17.0625 5.14787 17.7402 6.36519 18.7545 7.06848C 17.1167 7.60119 15.9736 8.78398 15.215 10.0902C 14.6391 11.0817 14.2524 12.1503 13.9688 13.1036C 13.6851 12.1508 13.3063 11.081 12.7318 10.0902C 11.9744 8.78392 10.8287 7.60117 9.19235 7.06848C 10.2064 6.36707 10.8924 5.15727 10.8934 3.85305C 10.8948 1.82051 9.24604 -9.08069e-07 7.25961 -9.08069e-07ZM 7.25961 1.09162C 8.5038 1.09162 9.78633 2.41578 9.7853 3.84473C 9.78427 5.27231 8.5028 6.60675 7.25961 6.60675C 6.01643 6.60675 4.72546 5.27215 4.7248 3.84473C 4.72413 2.41613 6.01553 1.09162 7.25961 1.09162ZM 20.7042 1.09162C 21.9484 1.09162 23.2315 2.41578 23.2305 3.84473C 23.2295 5.27231 21.9474 6.60675 20.7042 6.60675C 19.461 6.60675 18.1707 5.27215 18.17 3.84473C 18.1693 2.41613 19.4601 1.09162 20.7042 1.09162ZM 34.158 1.09162C 35.4021 1.09162 36.6846 2.41578 36.6836 3.84473C 36.6827 5.27231 35.4011 6.60675 34.158 6.60675C 32.9148 6.60675 31.6244 5.27215 31.6237 3.84473C 31.6231 2.41613 32.9139 1.09162 34.158 1.09162ZM 47.6032 1.09162C 48.8474 1.09162 50.1298 2.41578 50.1289 3.84473C 50.1279 5.27231 48.8464 6.60675 47.6032 6.60675C 46.36 6.60675 45.0696 5.27215 45.069 3.84473C 45.0684 2.41613 46.3591 1.09162 47.6032 1.09162Z"/>
<path id="path1_fill" d="M 7.2511 1.03402e-06C 5.26457 1.03402e-06 3.60727 1.82104 3.60822 3.85305C 3.60881 5.15619 4.29496 6.36519 5.30924 7.06848C 3.67146 7.60119 2.51989 8.78397 1.76123 10.0902C 0.731894 11.8624 0.312377 13.8907 3.32446e-08 15.0432L 1.04847 15.3201C 1.37674 14.1089 1.79957 12.1949 2.71483 10.6191C 3.63009 9.04321 4.93792 7.8404 7.2511 7.8404C 9.56428 7.8404 10.8731 9.04329 11.7868 10.6191C 12.7005 12.1948 13.1168 14.1085 13.4452 15.3201L 14.5016 15.3201C 14.8299 14.1089 15.2448 12.1949 16.16 10.6191C 17.0753 9.04321 18.3916 7.8404 20.7048 7.8404C 23.018 7.8404 24.3268 9.04329 25.2405 10.6191C 26.1542 12.1948 26.5706 14.1085 26.8989 15.3201L 27.9468 15.3201C 28.2751 14.1089 28.6985 12.1949 29.6138 10.6191C 30.529 9.04321 31.8363 7.8404 34.1494 7.8404C 36.4626 7.8404 37.772 9.04329 38.6857 10.6191C 39.5994 12.1948 40.0152 14.1085 40.3436 15.3201L 41.4005 15.3201C 41.7288 14.1089 42.1431 12.1949 43.0584 10.6191C 43.9736 9.04321 45.29 7.8404 47.6032 7.8404C 49.9164 7.8404 51.2257 9.04329 52.1394 10.6191C 53.0531 12.1948 53.4689 14.1085 53.7973 15.3201L 54.8451 15.0432C 54.5329 13.8911 54.1122 11.8625 53.0845 10.0902C 52.3271 8.78392 51.1814 7.60117 49.545 7.06848C 50.5591 6.36707 51.2361 5.15727 51.2369 3.85305C 51.2382 1.82051 49.5896 1.03402e-06 47.6032 1.03402e-06C 45.6166 1.03402e-06 43.9593 1.82104 43.9603 3.85305C 43.9609 5.15619 44.6385 6.36519 45.6528 7.06848C 44.015 7.60119 42.872 8.78397 42.1133 10.0902C 41.5379 11.0809 41.1598 12.1515 40.8763 13.1042C 40.5925 12.1509 40.2057 11.0817 39.6308 10.0902C 38.8734 8.78392 37.7276 7.60117 36.0913 7.06848C 37.1053 6.36707 37.7913 5.15727 37.7923 3.85305C 37.7939 1.82051 36.1359 1.03402e-06 34.1494 1.03402e-06C 32.1629 1.03402e-06 30.5062 1.82104 30.5072 3.85305C 30.5078 5.15619 31.1939 6.36519 32.2082 7.06848C 30.5704 7.60119 29.4182 8.78397 28.6596 10.0902C 28.0851 11.0793 27.7045 12.1441 27.4226 13.0958C 27.1403 12.144 26.7592 11.0794 26.1856 10.0902C 25.4281 8.78392 24.2824 7.60117 22.6461 7.06848C 23.6601 6.36707 24.3377 5.15727 24.3386 3.85305C 24.34 1.82051 22.6913 1.03402e-06 20.7048 1.03402e-06C 18.7183 1.03402e-06 17.061 1.82104 17.0619 3.85305C 17.0625 5.15619 17.7402 6.36519 18.7545 7.06848C 17.1167 7.60119 15.9736 8.78397 15.215 10.0902C 14.6395 11.0809 14.2614 12.1515 13.978 13.1042C 13.6942 12.1509 13.3068 11.0817 12.7318 10.0902C 11.9744 8.78392 10.8287 7.60117 9.19235 7.06848C 10.2064 6.36707 10.8924 5.15727 10.8934 3.85305C 10.8948 1.82051 9.23753 1.03402e-06 7.2511 1.03402e-06ZM 7.2511 1.09162C 8.49529 1.09162 9.77781 2.4241 9.77679 3.85305C 9.77575 5.28063 8.49428 6.60675 7.2511 6.60675C 6.00792 6.60675 4.72607 5.28047 4.72541 3.85305C 4.72474 2.42445 6.00702 1.09162 7.2511 1.09162ZM 20.7048 1.09162C 21.949 1.09162 23.2315 2.4241 23.2305 3.85305C 23.2295 5.28063 21.948 6.60675 20.7048 6.60675C 19.4616 6.60675 18.1707 5.28047 18.17 3.85305C 18.1693 2.42445 19.4607 1.09162 20.7048 1.09162ZM 34.1494 1.09162C 35.3936 1.09162 36.6761 2.4241 36.6751 3.85305C 36.6742 5.28063 35.3926 6.60675 34.1494 6.60675C 32.9063 6.60675 31.6244 5.28047 31.6237 3.85305C 31.6231 2.42445 32.9054 1.09162 34.1494 1.09162ZM 47.6032 1.09162C 48.8474 1.09162 50.1298 2.4241 50.1289 3.85305C 50.1279 5.28063 48.8464 6.60675 47.6032 6.60675C 46.36 6.60675 45.0696 5.28047 45.069 3.85305C 45.0684 2.42445 46.3591 1.09162 47.6032 1.09162Z"/>
<path id="path2_fill" d="M 7.25961 -4.56002e-07C 5.27308 -4.56002e-07 3.60727 1.81273 3.60822 3.84473C 3.60881 5.14787 4.29496 6.36519 5.30924 7.06848C 3.67146 7.60119 2.5284 8.78398 1.76975 10.0902C 0.740408 11.8624 0.312377 13.8907 1.08554e-15 15.0432L 1.04786 15.3201C 1.37613 14.1089 1.79957 12.1949 2.71483 10.6191C 3.63009 9.04321 4.94643 7.84039 7.25961 7.84039C 9.57279 7.84039 10.8731 9.04329 11.7868 10.6191C 12.7005 12.1948 13.1168 14.1085 13.4452 15.3201L 14.5016 15.3201C 14.8299 14.1089 15.2533 12.1949 16.1686 10.6191C 17.0838 9.04321 18.391 7.84039 20.7042 7.84039C 23.0174 7.84039 24.3268 9.04329 25.2405 10.6191C 26.1542 12.1948 26.57 14.1085 26.8983 15.3201L 27.9468 15.3201C 28.2751 14.1089 28.6979 12.1949 29.6132 10.6191C 30.5284 9.04321 31.8448 7.84039 34.158 7.84039C 36.4711 7.84039 37.772 9.04329 38.6857 10.6191C 39.5994 12.1948 40.0152 14.1085 40.3436 15.3201L 41.4005 15.3201C 41.7288 14.1089 42.1516 12.1949 43.0669 10.6191C 43.9822 9.04321 45.29 7.84039 47.6032 7.84039C 49.9164 7.84039 51.2257 9.04329 52.1394 10.6191C 53.0531 12.1948 53.4689 14.1085 53.7973 15.3201L 54.8451 15.0432C 54.5329 13.8911 54.1116 11.8625 53.0839 10.0902C 52.3265 8.78392 51.1807 7.60117 49.5444 7.06848C 50.5585 6.36707 51.2445 5.15727 51.2454 3.85305C 51.247 1.82051 49.5896 -4.56002e-07 47.6032 -4.56002e-07C 45.6166 -4.56002e-07 43.9593 1.81273 43.9603 3.84473C 43.9609 5.14787 44.6385 6.36519 45.6528 7.06848C 44.015 7.60119 42.872 8.78398 42.1133 10.0902C 41.5374 11.0817 41.1513 12.1503 40.8678 13.1036C 40.584 12.1508 40.2053 11.081 39.6308 10.0902C 38.8734 8.78392 37.7276 7.60117 36.0913 7.06848C 37.1053 6.36707 37.7913 5.15727 37.7923 3.85305C 37.7939 1.82051 36.1444 -4.56002e-07 34.158 -4.56002e-07C 32.1714 -4.56002e-07 30.5062 1.81273 30.5072 3.84473C 30.5078 5.14787 31.1939 6.36519 32.2082 7.06848C 30.5704 7.60119 29.4267 8.78398 28.6681 10.0902C 28.0922 11.0817 27.7089 12.1489 27.4244 13.1024C 27.142 12.1489 26.7605 11.0817 26.1856 10.0902C 25.4281 8.78392 24.2824 7.60117 22.6461 7.06848C 23.6601 6.36707 24.3462 5.15727 24.3471 3.85305C 24.3486 1.82051 22.6907 -4.56002e-07 20.7042 -4.56002e-07C 18.7177 -4.56002e-07 17.061 1.81273 17.0619 3.84473C 17.0625 5.14787 17.7402 6.36519 18.7545 7.06848C 17.1167 7.60119 15.9736 8.78398 15.215 10.0902C 14.6391 11.0817 14.2524 12.1503 13.9688 13.1036C 13.6851 12.1508 13.3063 11.081 12.7318 10.0902C 11.9744 8.78392 10.8287 7.60117 9.19235 7.06848C 10.2064 6.36707 10.8924 5.15727 10.8934 3.85305C 10.8948 1.82051 9.24604 -4.56002e-07 7.25961 -4.56002e-07ZM 7.25961 1.09162C 8.5038 1.09162 9.78633 2.41578 9.7853 3.84473C 9.78427 5.27231 8.5028 6.60675 7.25961 6.60675C 6.01643 6.60675 4.72546 5.27215 4.7248 3.84473C 4.72413 2.41613 6.01553 1.09162 7.25961 1.09162ZM 20.7042 1.09162C 21.9484 1.09162 23.2315 2.41578 23.2305 3.84473C 23.2295 5.27231 21.9474 6.60675 20.7042 6.60675C 19.461 6.60675 18.1707 5.27215 18.17 3.84473C 18.1693 2.41613 19.4601 1.09162 20.7042 1.09162ZM 34.158 1.09162C 35.4021 1.09162 36.6846 2.41578 36.6836 3.84473C 36.6827 5.27231 35.4011 6.60675 34.158 6.60675C 32.9148 6.60675 31.6244 5.27215 31.6237 3.84473C 31.6231 2.41613 32.9139 1.09162 34.158 1.09162ZM 47.6032 1.09162C 48.8474 1.09162 50.1298 2.41578 50.1289 3.84473C 50.1279 5.27231 48.8464 6.60675 47.6032 6.60675C 46.36 6.60675 45.0696 5.27215 45.069 3.84473C 45.0684 2.41613 46.3591 1.09162 47.6032 1.09162Z"/>
</defs>
</svg>
