<svg xmlns="http://www.w3.org/2000/svg" width="14" height="16" viewBox="0 0 14 16"><path fill="#E8F0F1" d="M12.11 13.76a7.91 7.91 0 0 1-1.09 1.31c-.43.4-.9.61-1.4.62-.36 0-.79-.1-1.29-.31s-.97-.31-1.39-.31c-.44 0-.92.1-1.43.31-.51.21-.92.31-1.23.33-.48.02-.96-.19-1.43-.64a7.5 7.5 0 0 1-1.14-1.36 9.07 9.07 0 0 1-1.2-2.39A8.67 8.67 0 0 1 0 8.47c0-1.05.23-1.96.68-2.72a4.03 4.03 0 0 1 3.37-1.99c.38 0 .87.12 1.49.35a5 5 0 0 0 1.19.35c.13 0 .57-.14 1.32-.41.7-.26 1.3-.36 1.78-.32 1.33.11 2.32.63 2.98 1.56a3.33 3.33 0 0 0-1.76 3.01c.01 1 .38 1.84 1.09 2.5.33.31.69.54 1.09.71a10.15 10.15 0 0 1-1.12 2.25zM9.92.31L9.91 0c-.4.02-.83.14-1.27.36-.45.22-.82.5-1.11.83a3.42 3.42 0 0 0-.92 2.22l.02.3c.91.08 1.74-.39 2.43-1.2.58-.68.86-1.41.86-2.2z"/></svg>