<?xml version="1.0" encoding="utf-8"?><svg xmlns="http://www.w3.org/2000/svg" xmlns:xlink="http://www.w3.org/1999/xlink"><symbol viewBox="0 0 14 23" id="arrow" xmlns="http://www.w3.org/2000/svg"><title>Vector</title><desc>Created using Figma</desc><use xlink:href="#aa" transform="rotate(180 5.5 10.318)" fill="#FFF"/><defs><path id="aa" d="M0 9.636l-1.462-1.365-1.319 1.413 1.367 1.367L0 9.636zM7.538-1.365l-9 9.636 2.924 2.73 9-9.636-2.924-2.73zM-1.414 11.05l9 9 2.828-2.829-9-9-2.828 2.829z"/></defs></symbol><symbol viewBox="0 0 46 36" id="camera" xmlns="http://www.w3.org/2000/svg"><title>Group 3</title><desc>Created using Figma</desc><use xlink:href="#ba" fill="#FFF"/><use xlink:href="#bb" transform="translate(13.49 10.247)" fill="#FFF"/><use xlink:href="#bc" transform="translate(7.46 9.479)" fill="#FFF"/><defs><path id="ba" d="M41.34 2.74h-2.468L36.406 0h-9.814l-2.467 2.74H4.605C2.083 2.74 0 4.822 0 7.342v24.055C0 33.917 2.083 36 4.605 36h36.79C43.916 36 46 33.918 46 31.397V7.342c-.055-2.52-2.083-4.602-4.66-4.602zm2.96 28.657a2.948 2.948 0 0 1-2.96 2.96H4.605a2.947 2.947 0 0 1-2.96-2.96V7.342a2.947 2.947 0 0 1 2.96-2.958h20.287l2.467-2.74h8.334l2.467 2.74h3.18a2.948 2.948 0 0 1 2.96 2.958v24.055z"/><path id="bb" d="M9.485 0C4.222 0 0 4.274 0 9.48c0 5.205 4.222 9.479 9.485 9.479a9.45 9.45 0 0 0 9.485-9.48A9.45 9.45 0 0 0 9.485 0zm0 17.315a7.836 7.836 0 1 1 0-15.671 7.836 7.836 0 1 1 0 15.671z"/><path id="bc" d="M2.029 4.055a2.028 2.028 0 1 0 0-4.056 2.028 2.028 0 0 0 0 4.056z"/></defs></symbol><symbol viewBox="0 0 37 46" id="defend" xmlns="http://www.w3.org/2000/svg"><title>Group 2</title><desc>Created using Figma</desc><use xlink:href="#ca" fill="#FFF"/><use xlink:href="#cb" transform="translate(8.53 16.125)" fill="#FFF"/><defs><path id="ca" d="M37 20.942V10.088L18.253 0 0 10.093V21.19A25.823 25.823 0 0 0 4.19 35.3a25.625 25.625 0 0 0 11.201 9.49L18.153 46l3.124-1.314a25.565 25.565 0 0 0 11.444-9.474A25.768 25.768 0 0 0 37 20.942zM20.515 42.84l-2.347.995-1.98-.866a23.641 23.641 0 0 1-10.34-8.755A23.825 23.825 0 0 1 1.98 21.191v-9.919l16.287-9.008 16.753 9.013v9.665a23.774 23.774 0 0 1-3.949 13.163 23.586 23.586 0 0 1-10.556 8.74v-.005z"/><path id="cb" d="M7.436 10.7L1.4 4.633 0 6.042l7.401 7.44L19.945 1.443 18.575 0 7.434 10.7z"/></defs></symbol><symbol viewBox="0 0 42 42" id="smoke" xmlns="http://www.w3.org/2000/svg"><title>Group 2</title><desc>Created using Figma</desc><use xlink:href="#da" fill="#FFF"/><defs><path id="da" d="M21 0C9.413 0 0 9.413 0 21s9.413 21 21 21 21-9.413 21-21S32.587 0 21 0zm0 1.91c10.555 0 19.09 8.535 19.09 19.09 0 4.932-1.858 9.426-4.921 12.812L8.189 6.83A19.026 19.026 0 0 1 21 1.909zM6.846 8.187L18.42 19.762l-8.397 8.397 3.818 3.818 8.397-8.397 11.574 11.574A19.014 19.014 0 0 1 21 40.091C10.445 40.09 1.91 31.555 1.91 21c0-4.936 1.869-9.425 4.936-12.812zm21.313 1.835l-6.95 6.95 3.818 3.818 6.95-6.95-3.818-3.818zM8.591 13.84a.955.955 0 0 0-.955.955c0 .35.264.632.478.894.263.328.477.769.477 1.492 0 .48-.279.877-.76 1.521-.549.707-1.137 1.398-1.15 2.297 0 1.244.488 2.194 1.015 2.819.016.02.441.522.895.522a.955.955 0 0 0 .954-.955c0-.35-.263-.633-.477-.895-.263-.328-.477-.768-.477-1.491 0-.48.279-.878.76-1.521.567-.692 1.137-1.398 1.149-2.297a4.334 4.334 0 0 0-1.014-2.82c-.016-.02-.441-.521-.895-.521z"/></defs></symbol><symbol viewBox="0 0 56 56" id="tickets" xmlns="http://www.w3.org/2000/svg"><title>Group 2</title><desc>Created using Figma</desc><use xlink:href="#ea" transform="translate(33.53 10.359)" fill="#FFF"/><use xlink:href="#eb" fill="#FFF"/><use xlink:href="#ec" transform="translate(37.94 14.768)" fill="#FFF"/><use xlink:href="#ed" transform="translate(42.35 19.177)" fill="#FFF"/><use xlink:href="#ee" transform="translate(9.22 17.038)" fill="#FFF"/><use xlink:href="#ef" transform="translate(14.09 21.909)" fill="#FFF"/><use xlink:href="#eg" transform="translate(18.96 26.781)" fill="#FFF"/><defs><path id="ea" d="M1.638 3.278a1.639 1.639 0 1 0 0-3.277 1.639 1.639 0 0 0 0 3.277z"/><path id="eb" d="M37.633.614c-.819-.819-2.247-.819-3.067 0L30.57 4.612a.933.933 0 0 0 0 1.32 1.035 1.035 0 0 1 0 1.46c-.39.391-1.071.39-1.46 0a.934.934 0 0 0-1.32 0L.634 34.559a2.172 2.172 0 0 0 0 3.068l17.733 17.739c.41.409.955.635 1.533.635.58 0 1.124-.226 1.534-.636L48.589 28.2a.933.933 0 0 0 0-1.32 1.034 1.034 0 0 1 0-1.461c.388-.387 1.074-.387 1.46 0a.934.934 0 0 0 1.32 0l3.997-3.998a2.172 2.172 0 0 0 0-3.068L37.633.614zm16.414 19.487L50.6 23.548a2.895 2.895 0 0 0-1.282-.296c-.776 0-1.504.3-2.05.847-.9.9-1.083 2.249-.55 3.333L20.113 54.044a.303.303 0 0 1-.427 0L1.954 36.305a.303.303 0 0 1 0-.427L28.558 9.265c.394.194.83.297 1.282.297.775 0 1.503-.301 2.05-.849.9-.9 1.083-2.249.551-3.332l3.446-3.447a.302.302 0 0 1 .427 0l17.733 17.74a.303.303 0 0 1 0 .427z"/><path id="ec" d="M1.638 3.278a1.639 1.639 0 1 0 0-3.277 1.639 1.639 0 0 0 0 3.277z"/><path id="ed" d="M1.638 3.278a1.639 1.639 0 1 0 0-3.277 1.639 1.639 0 0 0 0 3.277z"/><path id="ee" d="M19.712.274a.933.933 0 0 0-1.32 0L.273 18.398a.933.933 0 1 0 1.32 1.32l18.12-18.124a.935.935 0 0 0 0-1.32z"/><path id="ef" d="M19.713.274a.933.933 0 0 0-1.32 0L.273 18.399a.933.933 0 1 0 1.32 1.32l18.12-18.125a.934.934 0 0 0 0-1.32z"/><path id="eg" d="M18.392.274L.273 18.398a.933.933 0 1 0 1.32 1.32l18.12-18.125a.933.933 0 1 0-1.32-1.32z"/></defs></symbol></svg>