<?xml version="1.0" encoding="utf-8"?><svg xmlns="http://www.w3.org/2000/svg" xmlns:xlink="http://www.w3.org/1999/xlink"><symbol viewBox="0 0 24 24" id="call" xmlns="http://www.w3.org/2000/svg"><title>ic_local_phone</title><desc>Created using Figma</desc><g transform="translate(5522 841)"><mask id="ab"><use xlink:href="#aa" transform="translate(-5519 -838)" fill="#FFF"/></mask><g mask="url(#ab)"><use xlink:href="#ac" transform="translate(-5535 -854)" fill="#2C2929"/></g></g><defs><path id="aa" fill-rule="evenodd" d="M3.62 7.79c1.44 2.83 3.76 5.14 6.59 6.59l2.2-2.2c.27-.27.67-.36 1.02-.24 1.12.37 2.33.57 3.57.57.55 0 1 .45 1 1V17c0 .55-.45 1-1 1C7.61 18 0 10.39 0 1c0-.55.45-1 1-1h3.5c.55 0 1 .45 1 1 0 1.25.2 2.45.57 3.57.11.35.03.74-.25 1.02l-2.2 2.2z"/><path id="ac" fill-rule="evenodd" d="M0 0h50v50H0V0z"/></defs></symbol><symbol viewBox="0 0 8 17" id="fb" xmlns="http://www.w3.org/2000/svg"><title>hui</title><desc>Created using Figma</desc><use xlink:href="#ba" fill="#363030"/><defs><path id="ba" fill-rule="evenodd" d="M4.694 16.65V8.324h2.088l.277-2.87H4.694l.003-1.435c0-.749.065-1.15 1.042-1.15h1.305V0H4.955C2.447 0 1.564 1.392 1.564 3.733v1.722H0v2.87h1.564v8.325h3.13z"/></defs></symbol><symbol viewBox="0 0 15 17" id="in" xmlns="http://www.w3.org/2000/svg"><title>Shape</title><desc>Created using Figma</desc><use xlink:href="#ca" fill="#363030"/><defs><path id="ca" fill-rule="evenodd" d="M7.5 0C5.465 0 5.209.01 4.409.05c-.798.04-1.343.181-1.82.387a3.658 3.658 0 0 0-1.329.96 4.157 4.157 0 0 0-.865 1.475c-.186.53-.313 1.134-.349 2.02C.01 5.78 0 6.064 0 8.325c0 2.26.01 2.544.045 3.432.037.886.163 1.491.349 2.02a4.15 4.15 0 0 0 .865 1.475c.416.463.835.748 1.328.96.477.207 1.022.347 1.82.388.8.04 1.056.05 3.093.05s2.292-.01 3.092-.05c.798-.04 1.344-.181 1.82-.387a3.655 3.655 0 0 0 1.329-.96c.417-.464.673-.928.865-1.476.184-.529.311-1.134.348-2.02.037-.888.046-1.171.046-3.432 0-2.26-.01-2.545-.046-3.433-.037-.886-.164-1.49-.348-2.02a4.156 4.156 0 0 0-.865-1.475 3.651 3.651 0 0 0-1.329-.96C11.934.231 11.39.091 10.59.05 9.79.01 9.537 0 7.498 0h.003zm-.672 1.5H7.5c2.002 0 2.24.008 3.03.048.732.037 1.128.173 1.393.287.35.15.6.331.862.622.262.292.425.57.561.958.103.293.225.733.258 1.545.036.878.044 1.141.044 3.363s-.008 2.486-.044 3.363c-.033.812-.155 1.252-.258 1.545a2.618 2.618 0 0 1-.561.957 2.312 2.312 0 0 1-.862.622c-.264.115-.661.25-1.393.287-.79.04-1.028.049-3.03.049-2.003 0-2.24-.009-3.03-.049-.732-.037-1.129-.173-1.394-.287-.35-.15-.6-.331-.862-.623a2.622 2.622 0 0 1-.561-.956c-.103-.293-.225-.734-.259-1.546-.036-.877-.043-1.14-.043-3.364 0-2.223.007-2.485.043-3.363.034-.812.156-1.252.259-1.546.136-.388.298-.666.561-.957a2.32 2.32 0 0 1 .862-.623c.265-.114.662-.25 1.393-.287.692-.035.96-.045 2.358-.047V1.5zm4.676 1.383c-.497 0-.9.446-.9.998s.403 1 .9 1 .9-.448.9-1c0-.551-.403-.999-.9-.999zM7.5 4.05c-2.127 0-3.851 1.914-3.851 4.275 0 2.361 1.724 4.274 3.851 4.274 2.128 0 3.851-1.913 3.851-4.274 0-2.361-1.724-4.275-3.85-4.275zm0 1.5c1.381 0 2.5 1.242 2.5 2.775S8.882 11.1 7.5 11.1C6.12 11.1 5 9.858 5 8.325S6.12 5.55 7.5 5.55z"/></defs></symbol><symbol viewBox="0 0 15 15" id="loc" xmlns="http://www.w3.org/2000/svg"><title>ic_location_on</title><desc>Created using Figma</desc><g transform="translate(2564 708)"><mask id="db"><use xlink:href="#da" transform="translate(-2560.88 -706.75)" fill="#FFF"/></mask><g mask="url(#db)"><use xlink:href="#dc" transform="translate(-2572.12 -716.125)" fill="#2C2929"/></g></g><defs><path id="da" fill-rule="evenodd" d="M4.375 0A4.372 4.372 0 0 0 0 4.375C0 7.656 4.375 12.5 4.375 12.5S8.75 7.656 8.75 4.375A4.372 4.372 0 0 0 4.375 0zm0 5.938a1.563 1.563 0 1 1 .001-3.127 1.563 1.563 0 0 1-.001 3.127z"/><path id="dc" fill-rule="evenodd" d="M0 0h31.25v31.25H0V0z"/></defs></symbol><symbol viewBox="0 0 126 41" id="logo" xmlns="http://www.w3.org/2000/svg"><title>logo_2</title><desc>Created using Figma</desc><use xlink:href="#ea" transform="translate(72 13)"/><use xlink:href="#eb" transform="translate(72 28.243)" fill="#ED1C24"/><use xlink:href="#ec" transform="translate(74.26 15.536)" fill="#FFF"/><use xlink:href="#ed" transform="translate(81.45 15.512)" fill="#FFF"/><use xlink:href="#ee" transform="translate(84.68 15.512)" fill="#FFF"/><use xlink:href="#ef" transform="translate(93.65 15.487)" fill="#FFF"/><use xlink:href="#eg" transform="translate(103.44 15.487)" fill="#FFF"/><use xlink:href="#eh" transform="translate(109.21 15.362)" fill="#FFF"/><use xlink:href="#ei" transform="translate(117.75 15.512)" fill="#FFF"/><use xlink:href="#ej" transform="translate(74.21 30.73)" fill="#FFF"/><use xlink:href="#ek" transform="translate(80.97 30.755)" fill="#FFF"/><use xlink:href="#el" transform="translate(83.86 30.755)" fill="#FFF"/><use xlink:href="#em" transform="translate(91.7 30.73)" fill="#FFF"/><use xlink:href="#en" transform="translate(33.6)"/><use xlink:href="#eo"/><defs><path id="ea" d="M54 0H0v12.757h54V0z"/><path id="eb" d="M27.349 0H0v12.757h27.349V0z"/><path id="ec" d="M2.333 1.393H0V0h6.278v1.393h-2.31v6.191H2.334V1.393z"/><path id="ed" d="M1.612 0H0v7.61h1.612V0z"/><path id="ee" d="M0 0h2.093L3.8 3.357 5.46 0H7.6v7.61H6.087V2.237H6.06L4.426 5.694h-1.25L1.562 2.288H1.54v5.321H0V0z"/><path id="ef" d="M1.563 4.6v1.617h4.162v1.392H0V0h5.364v1.393h-3.8v1.715H4.93V4.6H1.563z"/><path id="eg" d="M1.563 6.217v1.417H0V0h5.364v1.393h-3.8v1.715H4.93V4.6H1.563v1.617z"/><path id="eh" d="M3.8 7.858C1.708 7.858 0 6.092 0 3.929 0 1.74 1.708 0 3.8 0c2.093 0 3.8 1.766 3.8 3.929S5.894 7.858 3.8 7.858zM1.54 3.929c0 1.268 1.01 2.313 2.236 2.313 1.227 0 2.213-1.045 2.213-2.313 0-1.268-1.01-2.338-2.213-2.338-1.202 0-2.237 1.07-2.237 2.338z"/><path id="ei" d="M4.185 4.8l2.069 2.81H4.282L2.429 4.873h-.793v2.735H0V0h3.32c1.85 0 2.572 1.194 2.572 2.437 0 1.044-.53 2.064-1.756 2.362h.048zM1.612 1.317v2.288h1.25c.77 0 1.42-.174 1.42-1.144 0-.995-.65-1.144-1.42-1.144h-1.25z"/><path id="ej" d="M0 7.584V0h1.588v6.167H5.34v1.417H0z"/><path id="ek" d="M1.612 0H0v7.61h1.612V0z"/><path id="el" d="M4.21 7.61H2.38L0 0h1.66l1.635 5.346h.024L4.98 0h1.66L4.21 7.61z"/><path id="em" d="M1.563 4.6v1.617h4.138v1.392H0V0h5.364v1.393h-3.8v1.715h3.343V4.6H1.563z"/><path id="en" d="M5.825 14.294h4.688l1.136 3.582h4.76L10.157 0h-4.05L0 17.876h4.76l1.065-3.582zm2.308-9.228h.107l1.207 5.247H6.82l1.314-5.247z"/><path id="eo" d="M55.654 13.425V0h-4.475v17.876h6.783L37.505 37.598H3.339V20.88L20.173 4.198h6.5l-7.6 12.014.816 1.664h13.034v-4.161l-7.138.072L33.35 1.52 32.39 0H19.606L0 19.433V41h38.82l23.972-23.124v-4.45h-7.138z"/></defs></symbol><symbol viewBox="0 0 19 19" id="search" xmlns="http://www.w3.org/2000/svg"><title>Search</title><desc>Created using Figma</desc><use xlink:href="#fa" fill="#FFF" fill-opacity=".01"/><use xlink:href="#fb" transform="translate(2.38 2.375)"/><defs><path id="fa" fill-rule="evenodd" d="M0 0h19v19H0V0z"/><path id="fb" fill-rule="evenodd" d="M9.896 8.708H9.27l-.221-.213a5.123 5.123 0 0 0 1.243-3.35 5.146 5.146 0 1 0-5.146 5.147 5.123 5.123 0 0 0 3.349-1.243l.213.221v.626l3.959 3.95 1.18-1.18-3.951-3.958zm-4.75 0a3.558 3.558 0 0 1-3.563-3.562 3.558 3.558 0 0 1 3.563-3.563 3.558 3.558 0 0 1 3.562 3.563 3.558 3.558 0 0 1-3.562 3.562z"/></defs></symbol><symbol viewBox="0 0 15 14" id="tw" xmlns="http://www.w3.org/2000/svg"><title>Path</title><desc>Created using Figma</desc><use xlink:href="#ga" fill="#363030"/><defs><path id="ga" fill-rule="evenodd" d="M7.283 3.543l.033.576-.542-.07c-1.973-.27-3.696-1.188-5.16-2.728L.9.557l-.185.564c-.39 1.258-.14 2.587.672 3.48.434.494.336.565-.412.271-.26-.094-.487-.165-.509-.13-.076.083.184 1.153.39 1.576.282.588.856 1.164 1.485 1.505l.531.27-.628.012c-.607 0-.63.012-.564.259.217.764 1.073 1.576 2.027 1.928l.672.247-.586.376a5.785 5.785 0 0 1-2.904.87c-.488.012-.889.06-.889.095 0 .117 1.322.775 2.092 1.034 2.308.764 5.05.435 7.11-.87 1.463-.929 2.926-2.775 3.609-4.562.368-.952.737-2.692.737-3.527 0-.541.032-.612.64-1.258.357-.376.693-.788.758-.906.108-.223.098-.223-.455-.023-.921.353-1.051.306-.596-.223.336-.377.737-1.059.737-1.259 0-.035-.163.024-.347.13-.195.117-.629.294-.954.4l-.585.2-.531-.389c-.293-.211-.705-.446-.921-.517-.553-.165-1.399-.141-1.897.047-1.355.53-2.211 1.893-2.114 3.386z"/></defs></symbol><symbol viewBox="0 0 15 10" id="vk" xmlns="http://www.w3.org/2000/svg"><title>Shape</title><desc>Created using Figma</desc><use xlink:href="#ha" fill="#363030"/><defs><path id="ha" fill-rule="evenodd" d="M8.236 9.285s.27-.033.409-.195c.127-.149.123-.43.123-.43s-.017-1.31.54-1.503c.551-.19 1.258 1.267 2.008 1.827.566.424.996.331.996.331l2.003-.03s1.048-.07.551-.968c-.04-.074-.29-.664-1.489-1.878-1.257-1.27-1.088-1.064.425-3.262.921-1.338 1.29-2.155 1.174-2.504-.109-.334-.787-.246-.787-.246l-2.255.015s-.167-.024-.291.056c-.121.08-.2.264-.2.264s-.356 1.035-.833 1.916C9.606 4.536 9.205 4.634 9.04 4.52c-.382-.27-.286-1.08-.286-1.657 0-1.8.25-2.551-.488-2.746C8.02.052 7.84.01 7.213.002 6.408-.007 5.727.005 5.34.211c-.256.136-.454.442-.333.46.148.02.486.098.665.364.231.343.223 1.112.223 1.112s.133 2.12-.31 2.383c-.304.18-.72-.188-1.617-1.874C3.51 1.793 3.164.838 3.164.838S3.098.66 2.978.564a.878.878 0 0 0-.346-.152L.489.427S.167.437.049.59c-.105.135-.008.415-.008.415s1.678 4.278 3.578 6.433c1.742 1.977 3.72 1.847 3.72 1.847h.897z"/></defs></symbol></svg>