<?xml version="1.0" encoding="utf-8"?><svg xmlns="http://www.w3.org/2000/svg" xmlns:xlink="http://www.w3.org/1999/xlink"><symbol viewBox="0 0 7 15" id="fb" xmlns="http://www.w3.org/2000/svg"><title>Shape</title><desc>Created using Figma</desc><use xlink:href="#aa" /><defs><path id="aa" fill-rule="evenodd" d="M4.433 15V7.5h1.972l.262-2.586H4.433l.003-1.293c0-.675.061-1.036.984-1.036h1.233V0H4.68C2.31 0 1.477 1.254 1.477 3.363v1.552H0v2.584h1.477V15h2.956z"/></defs></symbol><symbol viewBox="0 0 15 15" id="in" xmlns="http://www.w3.org/2000/svg"><title>Shape</title><desc>Created using Figma</desc><use xlink:href="#ba" /><defs><path id="ba" fill-rule="evenodd" d="M7.5 0C5.465 0 5.209.009 4.409.045c-.798.037-1.343.163-1.82.349a3.673 3.673 0 0 0-1.329.865 3.682 3.682 0 0 0-.865 1.328C.208 3.064.08 3.61.045 4.407.01 5.207 0 5.463 0 7.5s.01 2.292.045 3.092c.037.798.163 1.343.349 1.82.191.493.448.912.865 1.329.416.417.835.674 1.328.865.477.186 1.022.312 1.82.349.8.036 1.056.045 3.093.045s2.292-.009 3.092-.045c.798-.037 1.344-.163 1.82-.349a3.67 3.67 0 0 0 1.329-.865c.417-.417.673-.836.865-1.329.185-.477.311-1.022.349-1.82.036-.8.045-1.055.045-3.092s-.01-2.292-.045-3.092c-.038-.799-.164-1.344-.349-1.82a3.68 3.68 0 0 0-.865-1.33 3.666 3.666 0 0 0-1.329-.864C11.934.208 11.39.082 10.591.045 9.79.01 9.536 0 7.498 0h.003zm-.672 1.352h.673c2.002 0 2.24.007 3.03.043.732.033 1.129.155 1.393.258.35.136.6.298.862.56.262.263.425.513.561.863.103.264.225.661.258 1.393.036.79.044 1.028.044 3.03 0 2-.008 2.238-.044 3.03-.033.73-.155 1.127-.258 1.391-.136.35-.299.6-.561.862a2.32 2.32 0 0 1-.862.56c-.264.104-.661.226-1.393.26-.79.035-1.028.043-3.03.043-2.003 0-2.24-.008-3.03-.044-.732-.034-1.129-.156-1.394-.258-.35-.136-.6-.299-.862-.561a2.325 2.325 0 0 1-.561-.862c-.103-.264-.225-.661-.259-1.393-.036-.79-.043-1.028-.043-3.03 0-2.003.007-2.24.043-3.03.034-.731.156-1.128.259-1.393.136-.35.298-.6.561-.862.262-.263.512-.425.862-.562.265-.103.662-.225 1.393-.258.692-.031.96-.04 2.358-.042v.002zm4.676 1.245a.9.9 0 1 0 0 1.8.9.9 0 0 0 0-1.8zM7.501 3.648a3.852 3.852 0 1 0 0 7.704 3.852 3.852 0 0 0 0-7.704zM7.5 5a2.5 2.5 0 1 1 0 5 2.5 2.5 0 0 1 0-5z"/></defs></symbol><symbol viewBox="0 0 126 41" id="logo" xmlns="http://www.w3.org/2000/svg"><title>logo_2</title><desc>Created using Figma</desc><use xlink:href="#ca" transform="translate(72 13)"/><use xlink:href="#cb" transform="translate(72 28.243)" fill="#ED1C24"/><use xlink:href="#cc" transform="translate(74.26 15.536)" fill="#FFF"/><use xlink:href="#cd" transform="translate(81.45 15.512)" fill="#FFF"/><use xlink:href="#ce" transform="translate(84.68 15.512)" fill="#FFF"/><use xlink:href="#cf" transform="translate(93.65 15.487)" fill="#FFF"/><use xlink:href="#cg" transform="translate(103.44 15.487)" fill="#FFF"/><use xlink:href="#ch" transform="translate(109.21 15.362)" fill="#FFF"/><use xlink:href="#ci" transform="translate(117.75 15.512)" fill="#FFF"/><use xlink:href="#cj" transform="translate(74.21 30.73)" fill="#FFF"/><use xlink:href="#ck" transform="translate(80.97 30.755)" fill="#FFF"/><use xlink:href="#cl" transform="translate(83.86 30.755)" fill="#FFF"/><use xlink:href="#cm" transform="translate(91.7 30.73)" fill="#FFF"/><use xlink:href="#cn" transform="translate(33.6)"/><use xlink:href="#co"/><defs><path id="ca" d="M54 0H0v12.757h54V0z"/><path id="cb" d="M27.349 0H0v12.757h27.349V0z"/><path id="cc" d="M2.333 1.393H0V0h6.278v1.393h-2.31v6.191H2.334V1.393z"/><path id="cd" d="M1.612 0H0v7.61h1.612V0z"/><path id="ce" d="M0 0h2.093L3.8 3.357 5.46 0H7.6v7.61H6.087V2.237H6.06L4.426 5.694h-1.25L1.562 2.288H1.54v5.321H0V0z"/><path id="cf" d="M1.563 4.6v1.617h4.162v1.392H0V0h5.364v1.393h-3.8v1.715H4.93V4.6H1.563z"/><path id="cg" d="M1.563 6.217v1.417H0V0h5.364v1.393h-3.8v1.715H4.93V4.6H1.563v1.617z"/><path id="ch" d="M3.8 7.858C1.708 7.858 0 6.092 0 3.929 0 1.74 1.708 0 3.8 0c2.093 0 3.8 1.766 3.8 3.929S5.894 7.858 3.8 7.858zM1.54 3.929c0 1.268 1.01 2.313 2.236 2.313 1.227 0 2.213-1.045 2.213-2.313 0-1.268-1.01-2.338-2.213-2.338-1.202 0-2.237 1.07-2.237 2.338z"/><path id="ci" d="M4.185 4.8l2.069 2.81H4.282L2.429 4.873h-.793v2.735H0V0h3.32c1.85 0 2.572 1.194 2.572 2.437 0 1.044-.53 2.064-1.756 2.362h.048zM1.612 1.317v2.288h1.25c.77 0 1.42-.174 1.42-1.144 0-.995-.65-1.144-1.42-1.144h-1.25z"/><path id="cj" d="M0 7.584V0h1.588v6.167H5.34v1.417H0z"/><path id="ck" d="M1.612 0H0v7.61h1.612V0z"/><path id="cl" d="M4.21 7.61H2.38L0 0h1.66l1.635 5.346h.024L4.98 0h1.66L4.21 7.61z"/><path id="cm" d="M1.563 4.6v1.617h4.138v1.392H0V0h5.364v1.393h-3.8v1.715h3.343V4.6H1.563z"/><path id="cn" d="M5.825 14.294h4.688l1.136 3.582h4.76L10.157 0h-4.05L0 17.876h4.76l1.065-3.582zm2.308-9.228h.107l1.207 5.247H6.82l1.314-5.247z"/><path id="co" d="M55.654 13.425V0h-4.475v17.876h6.783L37.505 37.598H3.339V20.88L20.173 4.198h6.5l-7.6 12.014.816 1.664h13.034v-4.161l-7.138.072L33.35 1.52 32.39 0H19.606L0 19.433V41h38.82l23.972-23.124v-4.45h-7.138z"/></defs></symbol><symbol viewBox="0 0 15 13" id="tw" xmlns="http://www.w3.org/2000/svg"><title>Shape</title><desc>Created using Figma</desc><use xlink:href="#da" /><defs><path id="da" fill-rule="evenodd" d="M7.283 3.297l.033.537-.542-.066c-1.973-.252-3.696-1.105-5.16-2.539L.9.52l-.185.524c-.39 1.171-.14 2.408.672 3.24.434.459.336.524-.412.25-.26-.087-.487-.152-.509-.12C.39 4.49.65 5.487.856 5.88c.282.547.856 1.083 1.485 1.4l.531.252-.628.011c-.607 0-.63.01-.564.24.217.712 1.073 1.467 2.027 1.795l.672.23-.586.35a6.103 6.103 0 0 1-2.904.81c-.488.01-.889.055-.889.087 0 .11 1.322.723 2.092.963 2.308.711 5.05.405 7.11-.81 1.463-.864 2.926-2.582 3.609-4.245.368-.886.737-2.506.737-3.283 0-.503.032-.569.64-1.17.357-.35.693-.733.758-.843.108-.208.098-.208-.455-.022-.921.329-1.051.285-.596-.208.336-.35.737-.984.737-1.17 0-.033-.163.021-.347.12-.195.11-.629.273-.954.372l-.585.186-.531-.361c-.293-.197-.705-.416-.921-.482-.553-.153-1.399-.13-1.897.044C8.042.64 7.186 1.908 7.283 3.297z"/></defs></symbol><symbol viewBox="0 0 15 9" id="vk" xmlns="http://www.w3.org/2000/svg"><title>Shape</title><desc>Created using Figma</desc><use xlink:href="#ea" /><defs><path id="ea" fill-rule="evenodd" d="M8.236 8.365s.27-.03.409-.176c.127-.134.123-.387.123-.387s-.017-1.18.54-1.354c.551-.172 1.258 1.141 2.008 1.646.566.382.996.298.996.298l2.003-.027s1.048-.063.551-.872c-.04-.066-.29-.599-1.489-1.692-1.257-1.144-1.088-.96.425-2.939.921-1.205 1.29-1.941 1.174-2.256-.109-.301-.787-.221-.787-.221l-2.255.014s-.167-.023-.291.05a.625.625 0 0 0-.2.238s-.356.932-.833 1.726C9.606 4.086 9.205 4.175 9.04 4.07c-.382-.242-.286-.973-.286-1.493 0-1.622.25-2.298-.488-2.473C8.02.046 7.84.008 7.213.002 6.408-.006 5.727.005 5.34.19c-.256.123-.454.398-.333.414.148.02.486.09.665.328.231.31.223 1.002.223 1.002s.133 1.91-.31 2.147c-.304.162-.72-.17-1.617-1.688C3.51 1.615 3.164.755 3.164.755s-.067-.16-.187-.247C2.834.404 2.632.371 2.632.371L.489.385S.167.394.049.53C-.056.653.04.906.04.906S1.719 4.759 3.619 6.7c1.742 1.78 3.72 1.664 3.72 1.664h.897z"/></defs></symbol></svg>